{"title":"Andrej Tarkovskij's The Sacrifice (1986) - 1080p x265 HEVC - SWE","uid":14691512,"size":2489072138,"categoryP":"video","categoryS":"hd___movies","magnet":"?xt=urn:btih:6683abbfce9b85294d6cd8a893bed5b8fee6fe9e&amp;dn=Andrej+Tarkovskij%27s+The+Sacrifice+%281986%29+-+1080p+x265+HEVC+-+SWE&amp;tr=udp%3A%2F%2Ftracker.leechers-paradise.org%3A6969&amp;tr=udp%3A%2F%2Fzer0day.ch%3A1337&amp;tr=udp%3A%2F%2Fopen.demonii.com%3A1337&amp;tr=udp%3A%2F%2Ftracker.coppersurfer.tk%3A6969&amp;tr=udp%3A%2F%2Fexodus.desync.com%3A6969","seeders":1,"leechers":0,"uploader":"BRSHNKV","files":2,"time":1464206473,"description":"At the dawn of World War III, a man searches for a way to restore peace to the world and finds he must give something in return.\r\n\r\n\r\nTechnical:\r\n\r\nFormat : MPEG-4\r\nFormat profile : Base Media / Version 2\r\nCodec ID : mp42\r\nFile size : 2.32 GiB\r\nDuration : 2h 28mn\r\nOverall bit rate mode : Variable\r\nOverall bit rate : 2 232 Kbps\r\nEncoded date : UTC 2016-05-18 17:08:37\r\nTagged date : UTC 2016-05-18 17:08:37\r\nWriting application : HandBrake 20160211184813-ffd8cb1-master 2016021301\r\n\r\nVideo\r\nID : 1\r\nFormat : HEVC\r\nFormat/Info : High Efficiency Video Coding\r\nFormat profile : Main   @Main\r\nCodec ID : hev1\r\nCodec ID/Info : High Efficiency Video Coding\r\nDuration : 2h 28mn\r\nBit rate : 2 101 Kbps\r\nWidth : 1 800 pixels\r\nHeight : 1 080 pixels\r\nDisplay aspect ratio : 5:3\r\nFrame rate mode : Variable\r\nFrame rate : 23.976 fps\r\nMinimum frame rate : 23.974 fps\r\nMaximum frame rate : 23.981 fps\r\nColor space : YUV\r\nChroma subsampling : 4:2:0\r\nBit depth : 10 bits\r\nBits/(Pixel*Frame) : 0.045\r\nStream size : 2.18 GiB (94%)\r\nWriting library : x265 1.9:[Mac OS X][clang 7.0.2][64 bit] 10bit\r\nEncoding settings : wpp / ctu=64 / min-cu-size=8 / max-tu-size=32 / tu-intra-depth=1 / tu-inter-depth=1 / me=1 / subme=2 / merange=57 / no-rect / no-amp / max-merge=2 / temporal-mvp / no-early-skip / rdpenalty=0 / no-tskip / no-tskip-fast / strong-intra-smoothing / no-lossless / no-cu-lossless / no-constrained-intra / no-fast-intra / open-gop / no-temporal-layers / interlace=0 / keyint=240 / min-keyint=24 / scenecut=40 / rc-lookahead=20 / lookahead-slices=6 / bframes=4 / bframe-bias=0 / b-adapt=2 / ref=3 / limit-refs=3 / no-limit-modes / weightp / no-weightb / aq-mode=1 / qg-size=32 / aq-strength=1.00 / cbqpoffs=0 / crqpoffs=0 / rd=3 / psy-rd=2.00 / rdoq-level=0 / psy-rdoq=0.00 / signhide / deblock / sao / no-sao-non-deblock / b-pyramid / cutree / no-intra-refresh / rc=2 / pass / bitrate=2100 / qcomp=0.60 / qpmin=0 / qpmax=51 / qpstep=4 / cplxblur=20.0 / qblur=0.5 / ipratio=1.40 / pbratio=1.30\r\nEncoded date : UTC 2016-05-18 17:08:37\r\nTagged date : UTC 2016-05-18 17:08:37\r\nColor range : Limited\r\nColor primaries : BT.709\r\nTransfer characteristics : BT.709\r\nMatrix coefficients : BT.709\r\n\r\nAudio\r\nID : 2\r\nFormat : AAC\r\nFormat/Info : Advanced Audio Codec\r\nFormat profile : LC\r\nCodec ID : 40\r\nDuration : 2h 28mn\r\nBit rate mode : Variable\r\nBit rate : 124 Kbps\r\nChannel(s) : 2 channels\r\nChannel positions : Front: L R\r\nSampling rate : 48.0 KHz\r\nCompression mode : Lossy\r\nStream size : 132 MiB (6%)\r\nTitle : Stereo / Stereo\r\nEncoded date : UTC 2016-05-18 17:08:37\r\nTagged date : UTC 2016-05-18 17:08:37\r\n\r\nText\r\nID : 3\r\nFormat : Timed Text\r\nMuxing mode : sbtl\r\nCodec ID : tx3g\r\nDuration : 2h 28mn\r\nBit rate mode : Variable\r\nBit rate : 36 bps\r\nStream size : 39.1 KiB (0%)\r\nLanguage : English\r\nEncoded date : UTC 2016-05-18 17:08:37\r\nTagged date : UTC 2016-05-18 17:08:37","torrent":{"xt":"urn:btih:6683abbfce9b85294d6cd8a893bed5b8fee6fe9e","amp;dn":"Andrej+Tarkovskij%27s+The+Sacrifice+%281986%29+-+1080p+x265+HEVC+-+SWE","amp;tr":["udp%3A%2F%2Ftracker.leechers-paradise.org%3A6969","udp%3A%2F%2Fzer0day.ch%3A1337","udp%3A%2F%2Fopen.demonii.com%3A1337","udp%3A%2F%2Ftracker.coppersurfer.tk%3A6969","udp%3A%2F%2Fexodus.desync.com%3A6969"],"infoHash":"6683abbfce9b85294d6cd8a893bed5b8fee6fe9e","infoHashBuffer":{"type":"Buffer","data":[102,131,171,191,206,155,133,41,77,108,216,168,147,190,213,184,254,230,254,158]},"announce":[],"urlList":[]}}